<?xml version="1.0" encoding="UTF-8" standalone="no"?>
<svg
   width="512"
   height="512"
   viewBox="0 0 512 512"
   id="svg2"
   version="1.1"
   inkscape:version="1.1.1 (3bf5ae0d25, 2021-09-20)"
   sodipodi:docname="mascot.svg"
   inkscape:export-filename="mascot.png"
   inkscape:export-xdpi="48"
   inkscape:export-ydpi="48"
   xmlns:inkscape="http://www.inkscape.org/namespaces/inkscape"
   xmlns:sodipodi="http://sodipodi.sourceforge.net/DTD/sodipodi-0.dtd"
   xmlns="http://www.w3.org/2000/svg"
   xmlns:svg="http://www.w3.org/2000/svg"
   xmlns:rdf="http://www.w3.org/1999/02/22-rdf-syntax-ns#"
   xmlns:cc="http://creativecommons.org/ns#"
   xmlns:dc="http://purl.org/dc/elements/1.1/">
  <defs
     id="defs4">
    <marker
       inkscape:isstock="true"
       style="overflow:visible"
       id="Arrow1Lstart"
       refX="0.0"
       refY="0.0"
       orient="auto"
       inkscape:stockid="Arrow1Lstart">
      <path
         transform="scale(0.8) translate(12.5,0)"
         style="fill-rule:evenodd;stroke:#000000;stroke-width:1.0pt"
         d="M 0.0,0.0 L 5.0,-5.0 L -12.5,0.0 L 5.0,5.0 L 0.0,0.0 z "
         id="path872" />
    </marker>
  </defs>
  <sodipodi:namedview
     inkscape:guide-bbox="true"
     showguides="true"
     id="base"
     pagecolor="#ffffff"
     bordercolor="#666666"
     borderopacity="1.0"
     inkscape:pageopacity="0.0"
     inkscape:pageshadow="2"
     inkscape:zoom="0.97956784"
     inkscape:cx="242.96429"
     inkscape:cy="185.79622"
     inkscape:document-units="px"
     inkscape:current-layer="layer1"
     showgrid="false"
     units="px"
     inkscape:window-width="3840"
     inkscape:window-height="2080"
     inkscape:window-x="2869"
     inkscape:window-y="35"
     inkscape:window-maximized="1"
     inkscape:document-rotation="0"
     inkscape:pagecheckerboard="0" />
  <metadata
     id="metadata7">
    <rdf:RDF>
      <cc:Work
         rdf:about="">
        <dc:format>image/svg+xml</dc:format>
        <dc:type
           rdf:resource="http://purl.org/dc/dcmitype/StillImage" />
      </cc:Work>
    </rdf:RDF>
  </metadata>
  <g
     inkscape:label="Camada 1"
     inkscape:groupmode="layer"
     id="layer1"
     transform="translate(0,-540.3622)">
    <g
       transform="matrix(7.4572341,0,0,7.4572341,324.22654,618.71807)"
       id="g1006" />
    <g
       transform="matrix(7.4572341,0,0,7.4572341,324.22654,618.71807)"
       id="g978" />
    <g
       transform="matrix(7.4572341,0,0,7.4572341,324.22654,618.71807)"
       id="g980" />
    <g
       transform="matrix(7.4572341,0,0,7.4572341,324.22654,618.71807)"
       id="g982" />
    <g
       transform="matrix(7.4572341,0,0,7.4572341,324.22654,618.71807)"
       id="g984" />
    <g
       transform="matrix(7.4572341,0,0,7.4572341,324.22654,618.71807)"
       id="g986" />
    <g
       transform="matrix(7.4572341,0,0,7.4572341,324.22654,618.71807)"
       id="g988" />
    <g
       transform="matrix(7.4572341,0,0,7.4572341,324.22654,618.71807)"
       id="g990" />
    <g
       transform="matrix(7.4572341,0,0,7.4572341,324.22654,618.71807)"
       id="g992" />
    <g
       transform="matrix(7.4572341,0,0,7.4572341,324.22654,618.71807)"
       id="g994" />
    <g
       transform="matrix(7.4572341,0,0,7.4572341,324.22654,618.71807)"
       id="g996" />
    <g
       transform="matrix(7.4572341,0,0,7.4572341,324.22654,618.71807)"
       id="g998" />
    <g
       transform="matrix(7.4572341,0,0,7.4572341,324.22654,618.71807)"
       id="g1000" />
    <g
       transform="matrix(7.4572341,0,0,7.4572341,324.22654,618.71807)"
       id="g1002" />
    <g
       transform="matrix(7.4572341,0,0,7.4572341,324.22654,618.71807)"
       id="g1004" />
    <g
       id="g2063"
       transform="matrix(3.7795272,0,0,3.7795233,-1499.7277,197.49418)"
       style="fill:#1e002f;fill-opacity:1">
      <g
         id="g6470"
         transform="matrix(1.0374165,0,0,0.98733241,-17.381326,8.3158739)"
         style="fill:#1e002f;fill-opacity:1">
        <path
           id="path1086"
           style="stroke-width:4.594;fill:#1e002f;fill-opacity:1"
           d="m 495.16409,120.32683 a 13.790701,13.790718 0 0 0 -13.42678,16.49093 13.809492,13.809507 0 0 0 10.82333,10.82331 13.790701,13.790718 0 1 0 2.60345,-27.31424 z" />
        <path
           id="path1088"
           style="stroke-width:3.84064;fill:#1e002f;fill-opacity:1"
           d="m 496.05594,99.560545 a 34.566326,34.566362 0 0 0 -28.4484,13.817795 l -0.0414,0.0325 a 3.8094956,3.8094994 0 0 1 -6.06113,0 l -0.0408,-0.0325 a 34.277126,34.277161 0 0 0 -26.4082,-13.805392 34.979809,34.979845 0 0 0 -35.79059,33.345822 34.603082,34.603118 0 0 0 34.5452,35.76426 34.229501,34.229536 0 0 0 15.92924,-3.93464 l 10.60918,-22.92473 a 4.9714917,4.9714915 0 0 1 3.36569,-2.74609 4.9714917,4.9714915 0 0 1 1.21491,-0.13332 4.9714917,4.9714915 0 0 1 4.90202,4.99246 l -0.0356,6.82802 a 11.52193,11.521941 0 0 1 6.26163,10.23711 3.8698319,3.8698359 0 0 1 -0.2739,1.42679 l -0.0672,0.1695 a 34.213486,34.213521 0 0 0 18.38132,6.06578 34.972091,34.972127 0 0 0 35.70635,-33.29981 34.566326,34.566362 0 0 0 -33.74832,-35.803555 z m -62.58947,15.342765 a 19.269966,19.269986 0 0 1 18.85569,24.43058 18.944741,18.94476 0 0 1 -13.29479,13.29481 19.269966,19.269986 0 0 1 -23.72828,-23.7283 18.944741,18.94476 0 0 1 13.29481,-13.29481 19.269966,19.269986 0 0 1 4.87257,-0.70228 z m 61.44999,0 a 19.269966,19.269986 0 0 1 18.85622,24.43058 18.944741,18.94476 0 0 1 -13.29532,13.29481 19.269966,19.269986 0 0 1 -23.72826,-23.7283 18.944741,18.94476 0 0 1 13.29532,-13.29481 19.269966,19.269986 0 0 1 4.87204,-0.70228 z" />
        <path
           id="path1090"
           style="fill:#1e002f;stroke-width:15.9298;fill-opacity:1"
           d="m 467.90391,139.93653 a 6.0828241,5.8078288 0 0 1 0.077,0.92698 l -0.1772,32.48663 0.58114,-0.10103 9.72588,-21.80186 a 16.828794,15.089202 0 0 0 -10.20686,-11.51072 z" />
        <path
           id="path1094"
           style="fill:#1e002f;stroke-width:19.8944;fill-opacity:1"
           d="M 242.80859 0.0078125 A 323.97429 243.58807 0 0 0 126.52148 15.488281 A 271.97485 204.49099 0 0 1 238.52734 80.072266 L 238.52734 35.458984 L 238.52734 35.230469 L 238.53125 35.230469 A 17.471068 17.471068 0 0 1 255.99414 17.988281 L 255.99805 17.988281 A 17.471068 17.471068 0 0 1 273.4668 35.230469 L 273.46875 35.230469 L 273.46875 35.458984 L 273.46875 80.072266 A 271.97485 204.49099 0 0 1 385.47266 15.488281 A 323.97429 243.58807 0 0 0 255.99805 0.2890625 A 323.97429 243.58807 0 0 0 242.80859 0.0078125 z "
           transform="matrix(0.25504063,0,0,0.26797827,399.24593,83.458611)" />
        <path
           id="path1622"
           style="stroke-width:4.594;fill:#1e002f;fill-opacity:1"
           d="m 433.71371,120.32683 a 13.790701,13.790718 0 0 0 -13.42678,16.49093 13.809492,13.809507 0 0 0 10.82333,10.82331 13.790701,13.790718 0 1 0 2.60345,-27.31424 z" />
        <path
           id="path860"
           style="stroke-width:0.206176;fill:#1e002f;fill-opacity:1"
           d="m 405.26921,192.39879 v 16.52717 c 0,5.82254 21.53931,10.68269 49.70085,11.59362 l 0.10594,-20.45149 c -19.91572,-0.59108 -38.80787,-3.07101 -49.80679,-7.6693 z m 118.53335,0 c -10.54265,4.40538 -28.3517,6.86824 -47.35836,7.58559 l -9.57099,20.67886 c 31.62002,-0.24501 56.92935,-5.4288 56.92935,-11.73263 z" />
        <path
           id="path2329"
           style="stroke-width:0.206176;fill:#1e002f;fill-opacity:1"
           d="m 405.26921,167.52793 v 16.52717 c 0,4.42563 12.44515,8.29538 30.7816,10.29809 a 4.9714917,4.9714915 0 0 1 0.39222,-2.89388 l 7.76592,-16.78091 c -15.74533,-1.0576 -29.96849,-3.39988 -38.93974,-7.15047 z m 118.53335,0 c -8.31602,3.47494 -21.15175,5.74407 -35.53067,6.89984 l -9.73841,21.04215 c 25.95716,-1.25292 45.26908,-5.90407 45.26908,-11.41017 z" />
        <path
           id="path2338"
           style="fill:#1e002f;stroke-width:0.776212;fill-opacity:1"
           d="m 257.22656,193.41211 -90.35351,195.23437 72.35547,-13.24609 -0.60157,115.73438 h 5.50196 l 84.78906,-183.21094 -72.35547,13.24805 z"
           transform="matrix(0.26458336,0,0,0.26458363,396.80299,90.717266)" />
      </g>
    </g>
  </g>
</svg>
