<?xml version="1.0" encoding="UTF-8" standalone="no"?>
<svg
   width="512"
   height="512"
   viewBox="0 0 512 512"
   id="svg2"
   version="1.1"
   inkscape:version="1.1 (c68e22c387, 2021-05-23)"
   sodipodi:docname="pointel.svg"
   inkscape:export-filename="pointel.png"
   inkscape:export-xdpi="48"
   inkscape:export-ydpi="48"
   xmlns:inkscape="http://www.inkscape.org/namespaces/inkscape"
   xmlns:sodipodi="http://sodipodi.sourceforge.net/DTD/sodipodi-0.dtd"
   xmlns="http://www.w3.org/2000/svg"
   xmlns:svg="http://www.w3.org/2000/svg"
   xmlns:rdf="http://www.w3.org/1999/02/22-rdf-syntax-ns#"
   xmlns:cc="http://creativecommons.org/ns#"
   xmlns:dc="http://purl.org/dc/elements/1.1/">
  <defs
     id="defs4">
    <marker
       inkscape:isstock="true"
       style="overflow:visible"
       id="Arrow1Lstart"
       refX="0.0"
       refY="0.0"
       orient="auto"
       inkscape:stockid="Arrow1Lstart">
      <path
         transform="scale(0.8) translate(12.5,0)"
         style="fill-rule:evenodd;stroke:#000000;stroke-width:1.0pt"
         d="M 0.0,0.0 L 5.0,-5.0 L -12.5,0.0 L 5.0,5.0 L 0.0,0.0 z "
         id="path872" />
    </marker>
  </defs>
  <sodipodi:namedview
     inkscape:guide-bbox="true"
     showguides="true"
     id="base"
     pagecolor="#ffffff"
     bordercolor="#666666"
     borderopacity="1.0"
     inkscape:pageopacity="0.0"
     inkscape:pageshadow="2"
     inkscape:zoom="1"
     inkscape:cx="354.49999"
     inkscape:cy="250.49999"
     inkscape:document-units="px"
     inkscape:current-layer="g2063"
     showgrid="false"
     units="px"
     inkscape:window-width="2560"
     inkscape:window-height="1027"
     inkscape:window-x="1912"
     inkscape:window-y="22"
     inkscape:window-maximized="1"
     inkscape:document-rotation="0"
     inkscape:pagecheckerboard="0" />
  <metadata
     id="metadata7">
    <rdf:RDF>
      <cc:Work
         rdf:about="">
        <dc:format>image/svg+xml</dc:format>
        <dc:type
           rdf:resource="http://purl.org/dc/dcmitype/StillImage" />
      </cc:Work>
    </rdf:RDF>
  </metadata>
  <g
     inkscape:label="Camada 1"
     inkscape:groupmode="layer"
     id="layer1"
     transform="translate(0,-540.3622)">
    <g
       transform="matrix(7.4572341,0,0,7.4572341,324.22654,618.71807)"
       id="g1006" />
    <g
       transform="matrix(7.4572341,0,0,7.4572341,324.22654,618.71807)"
       id="g978" />
    <g
       transform="matrix(7.4572341,0,0,7.4572341,324.22654,618.71807)"
       id="g980" />
    <g
       transform="matrix(7.4572341,0,0,7.4572341,324.22654,618.71807)"
       id="g982" />
    <g
       transform="matrix(7.4572341,0,0,7.4572341,324.22654,618.71807)"
       id="g984" />
    <g
       transform="matrix(7.4572341,0,0,7.4572341,324.22654,618.71807)"
       id="g986" />
    <g
       transform="matrix(7.4572341,0,0,7.4572341,324.22654,618.71807)"
       id="g988" />
    <g
       transform="matrix(7.4572341,0,0,7.4572341,324.22654,618.71807)"
       id="g990" />
    <g
       transform="matrix(7.4572341,0,0,7.4572341,324.22654,618.71807)"
       id="g992" />
    <g
       transform="matrix(7.4572341,0,0,7.4572341,324.22654,618.71807)"
       id="g994" />
    <g
       transform="matrix(7.4572341,0,0,7.4572341,324.22654,618.71807)"
       id="g996" />
    <g
       transform="matrix(7.4572341,0,0,7.4572341,324.22654,618.71807)"
       id="g998" />
    <g
       transform="matrix(7.4572341,0,0,7.4572341,324.22654,618.71807)"
       id="g1000" />
    <g
       transform="matrix(7.4572341,0,0,7.4572341,324.22654,618.71807)"
       id="g1002" />
    <g
       transform="matrix(7.4572341,0,0,7.4572341,324.22654,618.71807)"
       id="g1004" />
    <g
       id="g2063"
       transform="matrix(3.7795272,0,0,3.7795233,-1499.7277,197.49418)">
      <path
         id="rect2583"
         style="fill:#ff9090;fill-opacity:1;stroke:none;stroke-width:7.481;stroke-miterlimit:4;stroke-dasharray:none"
         d="M 272.80859 332.83398 L 265.05078 338.08203 L 256 356.14453 L 247.29102 338.76172 L 238.86133 333.0625 C 224.00949 342.70781 207.25234 349.69963 189.23828 353.31055 L 187.17969 364.17969 C 186.51079 367.65938 183.07392 370.48633 179.48242 370.48633 L 168.34961 370.48633 L 153.93555 390.66992 L 249.01758 390.66992 L 223.2832 485.9375 L 224.86328 485.9375 L 316.71094 357.3418 L 322.30664 357.3418 L 321.49219 353.05273 C 303.82955 349.3358 287.39296 342.36719 272.80859 332.83398 z "
         transform="matrix(0.26458336,0,0,0.26458363,396.80299,90.717266)" />
      <path
         id="rect32-7"
         style="fill:#840000;fill-opacity:1;stroke:#180027;stroke-width:7.18306;stroke-linecap:round;stroke-linejoin:round;stroke-miterlimit:4;stroke-dasharray:none;stroke-opacity:1;paint-order:normal"
         d="M 425.16602 335.51367 C 411.23725 343.92791 395.75488 350.07202 379.21484 353.35742 L 377.16211 364.17969 C 376.4931 367.65938 373.06032 370.48633 369.46875 370.48633 L 331.29688 370.48633 C 327.70538 370.48633 324.27242 367.65938 323.60352 364.17969 L 322.30664 357.3418 L 316.71094 357.3418 L 224.86328 485.9375 L 223.2832 485.9375 L 249.01758 390.66992 L 153.93555 390.66992 L 168.34961 370.48633 L 141.31055 370.48633 C 137.71894 370.48633 134.28628 367.65938 133.61719 364.17969 L 131.51367 353.09961 C 115.44937 349.75782 100.4027 343.71728 86.832031 335.51953 C 86.346088 336.83583 86.066406 338.3078 86.066406 339.87109 L 86.066406 374.99609 C 86.066406 380.55573 89.505382 385.03125 93.777344 385.03125 L 99.777344 385.03125 L 99.777344 391.45117 L 93.777344 391.45117 C 89.505382 391.45117 86.066406 395.92473 86.066406 401.48438 L 86.066406 436.60938 C 86.066406 442.16894 89.505382 446.64453 93.777344 446.64453 L 99.777344 446.64453 L 99.777344 453.06641 L 93.777344 453.06641 C 89.505382 453.06641 86.066406 457.54004 86.066406 463.09961 L 86.066406 498.22461 C 86.066406 503.78425 89.505382 508.25977 93.777344 508.25977 L 418.22266 508.25977 C 422.49462 508.25977 425.93359 503.78425 425.93359 498.22461 L 425.93359 463.09961 C 425.93359 457.54004 422.49462 453.06641 418.22266 453.06641 L 412.22266 453.06641 L 412.22266 446.64453 L 418.22266 446.64453 C 422.49462 446.64453 425.93359 442.16894 425.93359 436.60938 L 425.93359 401.48438 C 425.93359 395.92473 422.49462 391.45117 418.22266 391.45117 L 412.22266 391.45117 L 412.22266 385.03125 L 418.22266 385.03125 C 422.49462 385.03125 425.93359 380.55573 425.93359 374.99609 L 425.93359 339.87109 C 425.93359 338.3055 425.6533 336.83143 425.16602 335.51367 z "
         transform="matrix(0.26458336,0,0,0.26458363,396.80299,90.717266)" />
      <path
         id="path963-6-9"
         style="clip-rule:evenodd;fill:#008400;fill-opacity:1;fill-rule:evenodd;stroke:#180027;stroke-width:2.11717;stroke-miterlimit:4;stroke-dasharray:none;stroke-opacity:1"
         d="m 414.26983,91.775851 c 0,7.287378 1.04206,15.819459 2.27633,23.401719 l -0.36948,-0.2497 c -0.78359,-0.52999 -1.96326,-0.42171 -2.63342,0.24246 l -7.14115,7.06023 c -0.67188,0.66416 -0.78039,1.82751 -0.24596,2.60209 l 1.70944,2.47025 c -2.55179,3.83669 -4.40545,8.16435 -5.37949,12.81294 l -2.93675,0.5439 c -0.93139,0.17494 -1.68775,1.07386 -1.68777,2.01321 v 9.98338 c 0,0.93934 0.75638,1.83722 1.68777,2.01217 l 2.92435,0.54183 c 0.97572,4.69858 2.84804,9.07306 5.42909,12.94477 l -1.63657,2.3653 c -0.53613,0.77457 -0.42593,1.94066 0.24598,2.60312 l 7.13957,7.05919 c 0.6719,0.66417 1.84882,0.77076 2.63241,0.24248 l 2.39105,-1.61771 c 3.86934,2.52234 8.23572,4.35862 12.92422,5.33395 l 0.55655,2.93193 c 0.17703,0.92067 1.08526,1.66837 2.03554,1.66837 h 10.0996 c 0.95025,0 1.85957,-0.7477 2.03655,-1.66837 l 0.54467,-2.8761 c 4.76622,-0.95539 9.19985,-2.80522 13.1294,-5.35721 l 2.23035,1.5081 -6.76029,-13.4928 c -4.30526,3.54071 -9.82194,5.67155 -15.83931,5.67155 -13.75312,0 -24.90381,-11.12544 -24.90381,-24.85037 2e-5,-13.72183 11.15069,-24.84727 24.90381,-24.84727 13.75316,0 24.90382,11.12544 24.90382,24.84727 0,-13.72183 11.15069,-24.84727 24.90381,-24.84727 13.75316,0 24.90382,11.12544 24.90382,24.84727 0,13.72493 -11.15066,24.85037 -24.90382,24.85037 -6.01737,0 -11.53351,-2.12773 -15.83875,-5.67155 l -6.67038,13.31288 2.05257,-1.38867 c 3.85878,2.52233 8.20759,4.36602 12.88083,5.34946 l 0.55864,2.94434 c 0.17698,0.92067 1.08526,1.66837 2.03551,1.66837 h 10.09961 c 0.95027,0 1.85853,-0.7477 2.03554,-1.66837 l 0.5431,-2.8637 c 4.77906,-0.94928 9.23065,-2.79158 13.1702,-5.34376 l 2.48512,1.68026 c 0.78361,0.52999 1.96222,0.42119 2.63238,-0.24298 l 7.13959,-7.05609 c 0.67189,-0.66417 0.78042,-1.82751 0.24599,-2.60209 l -1.68103,-2.42889 c 2.60214,-3.88637 4.48941,-8.282 5.47045,-13.00475 l 2.92436,-0.54286 c 0.93138,-0.17495 1.68722,-1.07284 1.68722,-2.01217 v -9.98338 c 0,-0.93935 -0.7579,-1.83827 -1.68928,-2.01321 l -2.93471,-0.54338 c -0.9798,-4.67539 -2.84949,-9.0258 -5.42446,-12.8786 l 1.74873,-2.52712 c 0.53615,-0.77458 0.4259,-1.94067 -0.24598,-2.60313 l -7.1396,-7.05919 c -0.67188,-0.66416 -1.84879,-0.77125 -2.63238,-0.24299 l -0.34261,0.23162 c 1.22396,-7.54825 2.25258,-16.019974 2.25258,-23.261099 -6.06275,0 -13.57721,8.419179 -18.80292,15.455349 -0.3864,-0.3764 -0.90643,-0.62144 -1.44539,-0.62144 h -10.0996 c -0.95028,0 -1.85959,0.74706 -2.03657,1.66942 l -0.55862,2.94383 c -4.69408,0.98845 -9.06208,2.84437 -12.93353,5.38461 l -2.48305,-1.67975 c -0.49789,-0.33677 -1.1553,-0.41355 -1.74045,-0.25592 -0.65622,-0.30032 -1.48002,-0.269 -2.07686,0.13338 l -2.57296,1.73973 c -3.94344,-2.57008 -8.39652,-4.43252 -13.1852,-5.39185 l -0.54467,-2.87403 c -0.17701,-0.92236 -1.08524,-1.66942 -2.03551,-1.66942 h -10.09961 c -0.45008,0 -0.88878,0.17115 -1.24695,0.44566 -5.21994,-7.00007 -12.65904,-15.279569 -18.67166,-15.279569 z" />
      <path
         id="path968-8-8"
         style="clip-rule:evenodd;fill:#fff6d5;fill-opacity:1;fill-rule:evenodd;stroke:#180027;stroke-width:1.58786;stroke-miterlimit:4;stroke-dasharray:none;stroke-opacity:1"
         d="m 489.44039,122.8295 c -13.75314,0 -24.90382,11.12531 -24.90382,24.84714 0,-13.72183 -11.15067,-24.84714 -24.90381,-24.84714 -13.75314,0 -24.90384,11.12531 -24.90384,24.84714 0,13.72493 11.1507,24.85024 24.90384,24.85024 6.01737,0 11.53357,-2.13066 15.83883,-5.67137 l 9.06498,18.09182 9.06499,-18.09182 c 4.30525,3.54383 9.82145,5.67137 15.83883,5.67137 13.75313,0 24.90384,-11.12531 24.90384,-24.85024 0,-13.72183 -11.15071,-24.84714 -24.90384,-24.84714 z" />
      <path
         id="path4079-8"
         style="clip-rule:evenodd;fill:#270033;fill-rule:evenodd;stroke-width:3.10944;fill-opacity:1"
         d="m 439.6329,135.25289 c -6.87657,0 -12.4524,5.56311 -12.4524,12.42404 0,6.86091 5.57583,12.42323 12.4524,12.42323 6.87655,0 12.45157,-5.56232 12.45157,-12.42323 0,-6.86093 -5.57502,-12.42404 -12.45157,-12.42404 z" />
      <path
         id="path973-2-7"
         style="clip-rule:evenodd;fill:#270033;fill-rule:evenodd;stroke-width:3.10944;fill-opacity:1"
         d="m 489.43999,135.25289 c -6.87655,0 -12.45156,5.56311 -12.45156,12.42404 0,6.86091 5.57501,12.42323 12.45156,12.42323 6.87658,0 12.4524,-5.56232 12.4524,-12.42323 0,-6.86093 -5.57582,-12.42404 -12.4524,-12.42404 z" />
    </g>
  </g>
</svg>
